# xmcd
#
# Track frame offsets: 
#        150
#        20949
#        41500
#        63791
#        84973
#        102811
#        118262
#        140462
#        158913
#        174561
#        193040
#        215192
#        235294
#        251611
#
# Disc length: 3539 seconds
#
# Revision: 0
# Processed by: cddbd v1.5.2PL0 Copyright (c) Steve Scherf et al.
# Submitted via: ExactAudioCopy v0.95a5
#
DISCID=c60dd10e
DTITLE=Fabrizio Poggi - Harpway 61
DYEAR=2012
DGENRE=Blues
TTITLE0=Baton Rouge, LA
TTITLE1=New Orleans, LA
TTITLE2=Tunica, MS
TTITLE3=Clarksdale, MS
TTITLE4=Greenwood, MS
TTITLE5=Memphis, TN
TTITLE6=Greenville, MS
TTITLE7=Kosciusko, MS
TTITLE8=Chicaga, IL
TTITLE9=Holly Springs, MS
TTITLE10=Hornlake, MS
TTITLE11=Helena, AR
TTITLE12=Moorhead, MS
TTITLE13=Tutwiler, MS
EXTD=
EXTT0=
EXTT1=
EXTT2=
EXTT3=
EXTT4=
EXTT5=
EXTT6=
EXTT7=
EXTT8=
EXTT9=
EXTT10=
EXTT11=
EXTT12=
EXTT13=
PLAYORDER=
